<svg width="16" height="14" fill="none" xmlns="http://www.w3.org/2000/svg"><path d="M1.311 7.45h9.77L9.39 9.082a.433.433 0 0 0 0 .636c.09.087.205.132.322.132a.463.463 0 0 0 .322-.132l2.489-2.4a.433.433 0 0 0 0-.636l-2.489-2.4a.458.458 0 0 0-.644 0 .433.433 0 0 0 0 .636l1.693 1.632h-9.77A.457.457 0 0 0 .85 7c0 .253.212.45.461.45zM13.756.85H3.8c-.762 0-1.394.602-1.394 1.35v2.4c0 .253.212.45.46.45a.457.457 0 0 0 .462-.45V2.2c0-.242.207-.45.472-.45h9.956c.264 0 .472.208.472.45v9.6c0 .242-.208.45-.472.45H3.8a.463.463 0 0 1-.472-.45V9.4a.457.457 0 0 0-.461-.45.457.457 0 0 0-.461.45v2.4c0 .748.632 1.35 1.394 1.35h9.956c.762 0 1.394-.602 1.394-1.35V2.2c0-.748-.632-1.35-1.394-1.35z" fill="#fff" stroke="#fff" stroke-width=".3"/></svg>