<svg width="78" height="66" fill="none" xmlns="http://www.w3.org/2000/svg"><path d="M36.376 31.564a1.632 1.632 0 0 1-1.035-.363L1.091 2.94A1.66 1.66 0 0 1 1.976.008c.436-.043.87.09 1.209.368l33.191 27.392L69.544.401a1.645 1.645 0 0 1 2.322.23 1.663 1.663 0 0 1-.228 2.332L37.41 31.201a1.632 1.632 0 0 1-1.035.363zm13.166 3.602c-.376 0-.741-.128-1.035-.363L46.1 32.748a1.66 1.66 0 0 1 .885-2.93c.436-.044.87.089 1.209.368L50.6 32.24a1.645 1.645 0 0 1 .513 1.843 1.644 1.644 0 0 1-1.572 1.082zM2.125 52.452a1.632 1.632 0 0 1-1.552-1.093 1.65 1.65 0 0 1 .517-1.832l23.54-19.341a1.645 1.645 0 0 1 2.323.23 1.663 1.663 0 0 1-.229 2.332L3.184 52.09c-.3.242-.674.37-1.059.363z" fill="#52A400"/><path d="M41.623 52.452H2.125A1.631 1.631 0 0 1 .606 51.42a1.65 1.65 0 0 1-.118-.636V1.682c0-.436.173-.854.48-1.163A1.633 1.633 0 0 1 2.125.038h68.477a1.637 1.637 0 0 1 1.638 1.644v29.011c0 .44-.175.86-.484 1.171a1.645 1.645 0 0 1-2.332 0 1.66 1.66 0 0 1-.482-1.17V3.325H3.786V49.14h37.837c.437 0 .857.174 1.166.485a1.66 1.66 0 0 1 0 2.342 1.65 1.65 0 0 1-1.166.485z" fill="#52A400"/><path d="M62.708 65.483a14.75 14.75 0 0 1-8.221-2.504 14.854 14.854 0 0 1-5.453-6.669 14.929 14.929 0 0 1-.846-8.587 14.89 14.89 0 0 1 4.044-7.613 14.782 14.782 0 0 1 7.573-4.075 14.74 14.74 0 0 1 8.55.836 14.816 14.816 0 0 1 6.65 5.466 14.916 14.916 0 0 1 2.505 8.253c0 3.946-1.558 7.73-4.334 10.523a14.794 14.794 0 0 1-10.468 4.37zm0-26.449c-2.28 0-4.51.68-6.405 1.952a11.568 11.568 0 0 0-4.247 5.197 11.629 11.629 0 0 0-.656 6.69 11.597 11.597 0 0 0 3.156 5.93 11.514 11.514 0 0 0 5.903 3.17 11.48 11.48 0 0 0 6.66-.66 11.54 11.54 0 0 0 5.175-4.265 11.618 11.618 0 0 0-1.434-14.622 11.504 11.504 0 0 0-8.152-3.392z" fill="#52A400"/><path d="M62.33 56.54a1.49 1.49 0 0 1-1.016-.407l-4.76-4.574a1.41 1.41 0 0 1-.439-1.016c0-.381.158-.747.438-1.016.281-.27.662-.421 1.058-.421.397 0 .778.151 1.058.42l3.555 3.416 5.818-7.806c.111-.148.252-.274.413-.37a1.484 1.484 0 0 1 1.094-.17c.185.042.36.118.514.225.154.107.285.242.385.397a1.358 1.358 0 0 1 .177 1.05 1.367 1.367 0 0 1-.234.494l-6.813 9.127a1.42 1.42 0 0 1-.464.397 1.482 1.482 0 0 1-.594.172l-.19.081z" fill="#52A400"/></svg>