<svg width="16" height="10" viewBox="0 0 16 10" fill="none" xmlns="http://www.w3.org/2000/svg">
<path d="M8 0C3.58149 0 0 5 0 5C0 5 3.58149 10 8 10C12.4185 10 16 5 16 5C16 5 12.4185 0 8 0ZM8 8C7.40666 7.99996 6.82666 7.82398 6.33334 7.49432C5.84002 7.16465 5.45553 6.6961 5.2285 6.14792C5.00146 5.59974 4.94208 4.99654 5.05786 4.41461C5.17364 3.83268 5.45937 3.29815 5.87894 2.87861C6.2985 2.45907 6.83305 2.17337 7.41499 2.05763C7.99693 1.94189 8.60012 2.00131 9.14829 2.22838C9.69645 2.45545 10.165 2.83997 10.4946 3.33331C10.8243 3.82665 11.0002 4.40666 11.0002 5C11.0001 5.79565 10.684 6.55868 10.1213 7.12128C9.5587 7.68387 8.79565 7.99995 8 8ZM8 3C7.60444 3 7.21776 3.1173 6.88886 3.33706C6.55996 3.55682 6.30362 3.86918 6.15224 4.23463C6.00087 4.60009 5.96126 5.00222 6.03843 5.39018C6.1156 5.77814 6.30608 6.13451 6.58579 6.41421C6.86549 6.69392 7.22186 6.8844 7.60982 6.96157C7.99778 7.03874 8.39991 6.99913 8.76537 6.84776C9.13082 6.69638 9.44318 6.44004 9.66294 6.11114C9.8827 5.78224 10 5.39556 10 5C10 4.46957 9.78929 3.96086 9.41421 3.58579C9.03914 3.21071 8.53043 3 8 3Z" fill="white"/>
</svg>
