<svg width="25" height="30" fill="none" xmlns="http://www.w3.org/2000/svg"><path d="M2.18 24.78V30h22.654V6.27L18.564 0H2.18v16.23H0v8.55h2.18zM19.03 2.262l3.54 3.54h-3.54v-3.54zM3.117.938h14.976V6.74h5.803v22.323H3.117v-4.284h19.47v-8.548H3.117V.937zm-2.18 16.23H21.65v6.674H.938v-6.674z" fill="#929BA9"/><path d="M7.998 18.163H5.909v4.614h.876v-1.49h1.031l.203-.004c.63 0 1.05-.101 1.257-.304.207-.203.311-.613.311-1.23 0-.622-.109-1.042-.326-1.26-.218-.218-.639-.326-1.263-.326zm.539 2.25c-.107.091-.36.136-.756.136h-.996V18.9H7.87c.374 0 .606.047.695.14.09.093.134.334.134.724 0 .343-.054.558-.162.65zm3.876-2.25h-2.268v4.614h2.296c.727 0 1.196-.164 1.403-.49.207-.328.311-1.07.311-2.22 0-.706-.13-1.199-.387-1.481-.259-.283-.71-.423-1.355-.423zm.668 3.588c-.123.193-.394.29-.813.29H11.02V18.9h1.301c.408 0 .668.092.779.277.11.184.165.617.165 1.298 0 .658-.061 1.084-.184 1.276zm1.713 1.026h.876V20.88h2.069v-.737h-2.07V18.9h2.181v-.737h-3.056v4.614z" fill="#929BA9"/></svg>