<svg width="16" height="15" fill="none" xmlns="http://www.w3.org/2000/svg"><path d="M5.572 14.938a5.126 5.126 0 0 1-3.588-1.436 4.794 4.794 0 0 1 0-6.936l5.444-5.263a3.715 3.715 0 0 1 2.6-1.04c.981 0 1.904.371 2.598 1.04a3.472 3.472 0 0 1 0 5.023L7.678 11.11a2.301 2.301 0 0 1-1.609.645c-.607 0-1.179-.23-1.608-.645a2.15 2.15 0 0 1 0-3.11l4.207-4.065a.538.538 0 0 1 .743 0 .496.496 0 0 1 0 .718L5.204 8.718a1.155 1.155 0 0 0 0 1.674c.461.448 1.27.448 1.731 0l4.949-4.784a2.483 2.483 0 0 0 0-3.589 2.696 2.696 0 0 0-3.713 0L2.727 7.282a3.802 3.802 0 0 0-1.179 2.75c0 1.037.42 2.015 1.18 2.75a4.07 4.07 0 0 0 2.844 1.14 4.067 4.067 0 0 0 2.845-1.14l6.186-5.979a.538.538 0 0 1 .743 0 .496.496 0 0 1 0 .718l-6.187 5.98a5.122 5.122 0 0 1-3.587 1.437z" fill="#375374"/></svg>