<svg width="13" height="10" viewBox="0 0 13 10" fill="none" xmlns="http://www.w3.org/2000/svg">
<path d="M11.6059 0.00721595C11.432 0.0318998 11.2717 0.113645 11.1509 0.239216C8.54765 2.80798 6.59922 4.92773 4.11466 7.40722L1.28716 5.05522C1.2088 4.98966 1.11806 4.93997 1.02015 4.90901C0.922236 4.87806 0.819083 4.86644 0.716602 4.87483C0.614122 4.88321 0.51433 4.91142 0.42295 4.95786C0.33157 5.0043 0.2504 5.06804 0.184094 5.14543C0.117789 5.22283 0.067654 5.31234 0.0365635 5.40886C0.00547304 5.50537 -0.00596113 5.60698 0.00291749 5.70786C0.0117961 5.80873 0.0408124 5.90689 0.0883024 5.9967C0.135792 6.08651 0.200822 6.16619 0.279661 6.2312L3.65966 9.0472C3.80968 9.17125 4.00161 9.23519 4.19731 9.22629C4.393 9.2174 4.57814 9.13633 4.71591 8.9992C7.50536 6.24679 9.4987 4.03989 12.2559 1.31922C12.3739 1.20647 12.4527 1.05992 12.481 0.900466C12.5093 0.741015 12.4858 0.576828 12.4137 0.431341C12.3416 0.285854 12.2247 0.166506 12.0796 0.090341C11.9346 0.0141755 11.7688 -0.0149202 11.6059 0.00721595Z" fill="#375374"/>
</svg>
