<svg width="16" height="13" viewBox="0 0 16 13" fill="none" xmlns="http://www.w3.org/2000/svg">
<path d="M1.99318 2.42722C1.43375 2.42722 0.980247 1.97372 0.980247 1.4143C0.980247 0.854871 1.43375 0.401367 1.99318 0.401367C2.5526 0.401367 3.0061 0.854871 3.0061 1.4143C3.0061 1.97372 2.5526 2.42722 1.99318 2.42722Z" fill="white"/>
<path d="M4.20888 0.78125H16V2.03158H4.20888V0.78125Z" fill="white"/>
<path d="M1.99318 7.26023C1.43375 7.26023 0.980247 6.80673 0.980247 6.2473C0.980247 5.68788 1.43375 5.23438 1.99318 5.23438C2.5526 5.23438 3.0061 5.68788 3.0061 6.2473C3.0061 6.80673 2.5526 7.26023 1.99318 7.26023Z" fill="white"/>
<path d="M4.20888 5.77454H16V7.02487H4.20888V5.77454Z" fill="white"/>
<path d="M1.99318 12.0935C1.43375 12.0935 0.980247 11.64 0.980247 11.0806C0.980247 10.5211 1.43375 10.0676 1.99318 10.0676C2.5526 10.0676 3.0061 10.5211 3.0061 11.0806C3.0061 11.64 2.5526 12.0935 1.99318 12.0935Z" fill="white"/>
<path d="M4.20888 10.7678H16V12.0182H4.20888V10.7678Z" fill="white"/>
</svg>
