<svg width="17" height="16" fill="none" xmlns="http://www.w3.org/2000/svg"><path fill-rule="evenodd" clip-rule="evenodd" d="M2.456 16h12.088C15.901 16 17 15.004 17 13.775V3.85c0-1.228-1.1-2.224-2.456-2.224h-1.322v-.77c0-.473-.423-.856-.944-.856-.522 0-.945.383-.945.856v.77H5.667v-.77C5.667.383 5.244 0 4.722 0c-.521 0-.944.383-.944.856v.77H2.456C1.099 1.626 0 2.622 0 3.85v9.925C0 15.004 1.1 16 2.456 16zm12.088-1.711H2.456c-.313 0-.567-.23-.567-.514V8.3H15.11v5.476c0 .284-.254.514-.567.514zM3.778 3.337H2.456c-.313 0-.567.23-.567.513v2.738H15.11V3.85c0-.283-.254-.513-.567-.513h-1.322v.599c0 .472-.423.855-.944.855-.522 0-.945-.383-.945-.855v-.6H5.667v.6c0 .472-.423.855-.945.855-.521 0-.944-.383-.944-.855v-.6z" fill="#5D6870"/></svg>