<svg width="19" height="19" fill="none" xmlns="http://www.w3.org/2000/svg"><circle cx="9.5" cy="9.5" r="9.5" fill="#6F899C"/><path d="M8.844 13a.952.952 0 0 1-.628-.238L5.271 10.09A.802.802 0 0 1 5 9.497c0-.223.098-.437.271-.594a.976.976 0 0 1 .655-.246c.245 0 .48.088.654.246l2.199 1.995 3.6-4.56a.867.867 0 0 1 .255-.217.985.985 0 0 1 .994.032.851.851 0 0 1 .238.232.738.738 0 0 1 .11.614.782.782 0 0 1-.145.289L9.616 12.62a.867.867 0 0 1-.286.232.957.957 0 0 1-.368.1L8.844 13z" fill="#fff"/></svg>