<svg width="14" height="13" fill="none" xmlns="http://www.w3.org/2000/svg"><path fill-rule="evenodd" clip-rule="evenodd" d="M11.116 5.122a.44.44 0 0 1-.31.128h-.362a.44.44 0 0 1-.31-.128L8.128 3.116A.44.44 0 0 1 8 2.806v-.362a.44.44 0 0 1 .128-.31L10.134.128a.44.44 0 0 1 .31-.128h.362a.44.44 0 0 1 .31.128l2.006 2.006a.44.44 0 0 1 .128.31v.362a.44.44 0 0 1-.128.31l-2.006 2.006zM.128 9.884a.44.44 0 0 0-.128.31v2.368c0 .242.196.438.438.438h2.368a.44.44 0 0 0 .31-.128l6.381-6.381a.44.44 0 0 0 .128-.31V5.82a.44.44 0 0 0-.128-.31L7.491 3.503a.44.44 0 0 0-.31-.128H6.82a.44.44 0 0 0-.31.128L.128 9.884z" fill="#fff"/></svg>