<svg width="15" height="15" fill="none" xmlns="http://www.w3.org/2000/svg"><path fill-rule="evenodd" clip-rule="evenodd" d="M14.764 8.086l-3.807 3.975c-.607.642-1.519-.32-.911-.962l2.54-2.68c.125-.131.083-.239-.095-.239H5.48c-.358 0-.647-.304-.647-.68 0-.378.29-.68.647-.68h7.01c.177 0 .22-.107.096-.24l-2.541-2.679c-.608-.642.304-1.604.911-.962l3.802 3.95a.87.87 0 0 1 .005 1.197zM1.61 13.636h2.257c.356 0 .644.306.644.682 0 .377-.288.682-.644.682H.965C.43 15 0 14.54 0 13.974V1.026C0 .46.433 0 .965 0h2.903c.356 0 .644.305.644.682 0 .376-.288.682-.644.682H1.61a.332.332 0 0 0-.322.34v11.591c0 .186.144.341.322.341z" fill="#8D9296"/></svg>