<svg width="12" height="14" fill="none" xmlns="http://www.w3.org/2000/svg"><path d="M5.923 7.864a3.625 3.625 0 0 1-3.621-3.621A3.625 3.625 0 0 1 5.923.622a3.625 3.625 0 0 1 3.621 3.621 3.625 3.625 0 0 1-3.62 3.621zm0-6.248a2.63 2.63 0 0 0-2.626 2.627A2.63 2.63 0 0 0 5.923 6.87 2.63 2.63 0 0 0 8.55 4.243a2.63 2.63 0 0 0-2.627-2.627z" fill="#fff"/><path d="M11.267 13.754H.497A.497.497 0 0 1 0 13.257c0-3.315 2.748-6.223 5.882-6.223 3.188 0 5.882 2.85 5.882 6.223a.497.497 0 0 1-.497.497zM1.019 12.76h9.726c-.25-2.573-2.416-4.732-4.863-4.732-2.448 0-4.612 2.16-4.863 4.732z" fill="#fff"/></svg>