<svg width="16" height="12" viewBox="0 0 16 12" fill="none" xmlns="http://www.w3.org/2000/svg">
<path d="M14.2968 0.00897907C14.0826 0.0396941 13.8851 0.141413 13.7363 0.297665C10.5294 3.49407 8.12926 6.13175 5.06865 9.21707L1.58559 6.29039C1.48906 6.20881 1.37728 6.14698 1.25667 6.10846C1.13606 6.06994 1.00899 6.05549 0.882748 6.06592C0.756507 6.07635 0.633578 6.11146 0.521011 6.16924C0.408445 6.22703 0.308455 6.30635 0.226777 6.40265C0.145099 6.49895 0.0833397 6.61034 0.0450408 6.73044C0.00674197 6.85053 -0.00734322 6.97697 0.00359391 7.10249C0.014531 7.22801 0.0502748 7.35016 0.108775 7.46191C0.167276 7.57366 0.247383 7.67282 0.344501 7.75371L4.50816 11.2578C4.69296 11.4121 4.92939 11.4917 5.17046 11.4806C5.41153 11.4695 5.63958 11.3687 5.8093 11.198C9.24549 7.77311 11.701 5.02698 15.0975 1.64155C15.2428 1.50126 15.3398 1.31889 15.3747 1.12048C15.4096 0.922072 15.3806 0.717767 15.2918 0.536733C15.203 0.355699 15.059 0.20719 14.8803 0.112415C14.7016 0.0176391 14.4974 -0.0185658 14.2968 0.00897907Z" fill="#375374"/>
</svg>
