<svg width="12" height="14" viewBox="0 0 12 14" fill="none" xmlns="http://www.w3.org/2000/svg">
<path d="M5.92312 7.86407C3.92632 7.86407 2.302 6.23975 2.302 4.24295C2.302 2.24615 3.92632 0.621826 5.92312 0.621826C7.91992 0.621826 9.54424 2.24615 9.54424 4.24295C9.54424 6.23975 7.91992 7.86407 5.92312 7.86407ZM5.92312 1.61639C4.47472 1.61639 3.29656 2.79455 3.29656 4.24295C3.29656 5.69135 4.47472 6.86951 5.92312 6.86951C7.37152 6.86951 8.54968 5.69135 8.54968 4.24295C8.54968 2.79455 7.37152 1.61639 5.92312 1.61639Z" fill="white"/>
<path d="M11.2668 13.7543H0.49728C0.22272 13.7543 0 13.5318 0 13.257C0 9.94189 2.74848 7.03381 5.88192 7.03381C9.07032 7.03381 11.7638 9.88357 11.7638 13.257C11.7641 13.5318 11.5414 13.7543 11.2668 13.7543ZM1.0188 12.76H10.745C10.4942 10.1874 8.32944 8.02837 5.88192 8.02837C3.4344 8.02837 1.26984 10.1874 1.0188 12.76Z" fill="white"/>
</svg>
