<svg width="19" height="19" fill="none" xmlns="http://www.w3.org/2000/svg"><path d="M9.375 18.6C4.205 18.6 0 14.428 0 9.3 0 4.172 4.206 0 9.375 0c5.17 0 9.375 4.172 9.375 9.3 0 5.128-4.206 9.3-9.375 9.3zm0-17.825C4.636.775.781 4.599.781 9.3c0 4.7 3.855 8.525 8.594 8.525 4.739 0 8.594-3.824 8.594-8.525 0-4.7-3.855-8.525-8.594-8.525z" fill="#52A400"/><path d="M13.281 8.912H9.766V5.425a.39.39 0 0 0-.391-.388.39.39 0 0 0-.39.388v3.487H5.468a.39.39 0 0 0-.39.388.39.39 0 0 0 .39.387h3.515v3.488c0 .214.175.387.391.387.216 0 .39-.173.39-.387V9.687h3.516c.216 0 .39-.173.39-.387a.389.389 0 0 0-.39-.388z" fill="#52A400"/></svg>