<svg width="19" height="19" viewBox="0 0 19 19" fill="none" xmlns="http://www.w3.org/2000/svg">
<path d="M9.375 18.6C4.20586 18.6 0 14.4278 0 9.3C0 4.17221 4.20586 0 9.375 0C14.5441 0 18.75 4.17221 18.75 9.3C18.75 14.4278 14.5441 18.6 9.375 18.6ZM9.375 0.775C4.63633 0.775 0.78125 4.59924 0.78125 9.3C0.78125 14.0008 4.63633 17.825 9.375 17.825C14.1137 17.825 17.9688 14.0008 17.9688 9.3C17.9688 4.59924 14.1137 0.775 9.375 0.775Z" fill="#52A400"/>
<path d="M13.2812 8.91248H9.76562V5.42498C9.76562 5.21108 9.59062 5.03748 9.375 5.03748C9.15938 5.03748 8.98438 5.21108 8.98438 5.42498V8.91248H5.46875C5.25313 8.91248 5.07812 9.08608 5.07812 9.29998C5.07812 9.51388 5.25313 9.68748 5.46875 9.68748H8.98438V13.175C8.98438 13.3893 9.15938 13.5625 9.375 13.5625C9.59062 13.5625 9.76562 13.3893 9.76562 13.175V9.68748H13.2812C13.4973 9.68748 13.6719 9.51388 13.6719 9.29998C13.6719 9.08608 13.4973 8.91248 13.2812 8.91248Z" fill="#52A400"/>
</svg>
