<?xml version="1.0" standalone="no"?>
<!DOCTYPE svg PUBLIC "-//W3C//DTD SVG 20010904//EN"
 "http://www.w3.org/TR/2001/REC-SVG-20010904/DTD/svg10.dtd">
<svg version="1.0" xmlns="http://www.w3.org/2000/svg"
 width="298.000000pt" height="298.000000pt" viewBox="0 0 298.000000 298.000000"
 preserveAspectRatio="xMidYMid meet">
<metadata>
Created by potrace 1.11, written by Peter Selinger 2001-2013
</metadata>
<g transform="translate(0.000000,298.000000) scale(0.100000,-0.100000)"
fill="#000000" stroke="none">
<path d="M1460 2880 c0 -5 -5 -10 -11 -10 -15 0 -38 -31 -39 -52 0 -11 6 -15
20 -11 16 4 20 0 20 -21 0 -29 -24 -36 -34 -10 -8 21 -17 13 -31 -29 -8 -23
-8 -40 -1 -57 21 -48 27 -53 42 -33 11 15 15 16 23 4 13 -19 -7 -59 -33 -68
-51 -17 -76 -4 -76 42 0 19 -4 35 -10 35 -5 0 -10 9 -10 19 0 11 -12 34 -26
51 -20 23 -24 34 -15 43 16 16 14 37 -4 31 -8 -4 -15 -1 -15 5 0 6 -7 11 -16
11 -9 0 -14 -6 -11 -12 2 -7 -3 -19 -12 -25 -14 -11 -14 -13 6 -19 20 -6 22
-12 20 -69 -2 -35 0 -72 4 -82 14 -39 -27 -82 -64 -67 -33 12 -29 44 6 57 5 1
10 21 13 44 4 35 1 45 -16 55 -11 7 -20 17 -20 23 0 11 -61 48 -85 51 -7 1
-26 5 -43 9 -16 3 -33 2 -36 -3 -5 -8 25 -57 45 -72 7 -6 10 -31 9 -82 0 -21
3 -38 7 -38 8 0 34 -25 86 -82 19 -20 22 -28 11 -32 -17 -7 -18 -48 -2 -64 8
-8 8 -15 -2 -27 -10 -12 -10 -18 0 -30 10 -12 10 -15 -3 -15 -17 0 -32 34 -22
50 18 28 -6 62 -61 86 -30 13 -64 24 -76 24 -12 0 -36 13 -53 29 -55 51 -118
59 -183 20 -34 -20 -67 -26 -58 -10 3 4 -3 16 -14 26 -19 17 -23 17 -53 3 -28
-14 -36 -14 -52 -2 -26 19 -31 18 -58 -12 -13 -14 -35 -31 -48 -38 -17 -8 -24
-20 -24 -41 0 -17 -6 -39 -12 -50 -8 -14 -8 -26 -1 -38 6 -12 6 -22 -2 -32 -8
-10 -5 -25 14 -64 31 -60 33 -86 6 -52 -11 12 -18 27 -15 32 7 10 -72 32 -85
24 -6 -3 -10 -14 -10 -24 0 -21 53 -47 87 -43 28 4 41 -21 39 -78 -1 -57 -28
-68 -45 -18 -16 46 -45 81 -69 83 -11 1 -29 11 -39 24 -10 12 -25 23 -33 24
-8 2 -21 6 -28 11 -24 15 -70 17 -78 4 -4 -7 -8 -24 -8 -38 -1 -18 -7 -25 -22
-26 -39 -2 -45 -12 -29 -50 7 -18 12 -34 9 -34 -3 0 0 -9 6 -19 7 -13 7 -22 0
-26 -19 -12 -10 -53 15 -73 13 -11 22 -22 19 -24 -2 -3 2 -11 10 -17 26 -22
225 24 226 52 1 7 18 -22 39 -63 21 -42 34 -79 29 -85 -5 -5 -25 8 -51 33 -44
44 -67 53 -67 27 0 -18 -1 -18 -36 0 -37 19 -53 19 -60 0 -4 -9 -19 -15 -41
-15 -38 0 -73 -15 -73 -32 0 -6 -11 -21 -25 -34 -22 -20 -24 -27 -15 -45 7
-11 26 -27 43 -34 18 -8 28 -14 24 -15 -4 0 -3 -9 2 -19 9 -16 6 -20 -24 -25
l-35 -7 3 -59 c1 -32 0 -61 -4 -64 -3 -3 -20 -7 -38 -8 -23 -2 -39 -11 -54
-33 -12 -16 -22 -34 -23 -40 -1 -16 17 -35 32 -35 8 0 23 -9 34 -20 12 -12 25
-18 29 -15 5 2 11 -5 14 -16 5 -19 10 -20 47 -14 23 4 46 3 53 -3 7 -5 21 -11
32 -14 16 -2 20 -12 21 -50 l1 -47 -33 1 c-40 1 -44 -2 -60 -48 -11 -32 -10
-38 7 -55 10 -10 14 -21 9 -24 -17 -11 -11 -24 15 -31 14 -3 22 -11 19 -16
-10 -15 17 -27 46 -22 20 5 29 0 40 -20 8 -16 23 -26 37 -27 13 -1 28 -3 33
-4 6 -1 23 -3 39 -4 40 -1 81 -35 74 -61 -4 -16 -8 -18 -19 -9 -8 6 -14 17
-14 25 0 17 -14 25 -52 31 -28 4 -47 -7 -48 -29 0 -14 63 -40 86 -35 13 2 29
-2 35 -9 13 -16 21 -147 9 -139 -5 3 -19 26 -32 52 -13 25 -31 48 -40 51 -10
2 -18 10 -18 17 0 16 -35 47 -43 38 -4 -3 -7 -1 -7 5 0 21 -52 73 -68 67 -8
-3 -21 3 -29 15 -15 21 -55 26 -101 13 -25 -6 -25 -11 -7 -98 3 -16 8 -40 11
-51 2 -12 21 -32 41 -44 35 -21 36 -23 17 -30 -12 -5 -24 -15 -27 -24 -4 -9
-13 -16 -20 -16 -18 0 -67 -63 -67 -85 0 -9 12 -27 28 -40 33 -28 107 -33 117
-8 4 12 11 6 25 -23 25 -48 25 -57 1 -44 -15 7 -23 6 -35 -5 -10 -10 -24 -13
-45 -9 -23 5 -32 2 -37 -10 -3 -8 -21 -18 -40 -22 -43 -8 -111 -79 -95 -98 8
-10 7 -17 -4 -26 -19 -16 -19 -40 1 -69 13 -17 23 -22 46 -19 24 4 31 0 39
-19 5 -14 17 -23 29 -23 11 0 30 -6 41 -12 17 -11 23 -10 38 9 10 12 26 21 37
20 13 -1 20 5 22 21 2 13 14 27 27 32 19 7 24 18 27 52 l3 43 19 -35 c23 -44
35 -51 59 -39 14 8 17 17 12 42 -4 18 -13 42 -20 53 -12 19 -11 24 9 43 l24
22 -2 -43 c-2 -24 1 -56 5 -71 6 -22 3 -36 -13 -57 -17 -23 -19 -37 -14 -70 3
-23 15 -51 27 -63 16 -18 23 -20 39 -9 27 16 48 16 32 0 -32 -32 14 -81 55
-59 14 7 23 7 30 0 7 -7 15 -6 24 3 8 7 37 14 65 15 28 1 75 8 104 17 65 19
70 20 70 2 0 -8 7 -17 16 -20 14 -5 14 -7 0 -22 -25 -24 -19 -46 18 -77 40
-31 51 -33 60 -11 7 18 21 11 21 -9 0 -7 15 -13 33 -15 18 -2 32 1 32 7 0 6 3
10 8 10 20 -3 31 2 26 15 -3 8 5 23 17 34 15 15 20 28 15 45 -4 18 -1 27 10
31 13 5 15 15 10 51 -4 26 -3 53 4 65 11 20 13 19 62 -25 43 -39 56 -45 94
-45 l44 0 -33 -47 c-18 -25 -50 -55 -72 -67 -45 -23 -68 -47 -56 -59 5 -4 37
-7 72 -5 l64 3 22 45 c13 28 29 47 44 50 16 4 23 14 26 35 2 19 17 42 37 60
19 17 36 39 38 50 5 30 52 30 66 -1 7 -13 16 -24 22 -24 5 0 10 -9 10 -19 0
-11 8 -22 19 -26 21 -7 71 -74 71 -96 0 -22 40 -61 55 -55 8 3 32 10 54 16 22
6 43 15 46 20 3 5 -19 21 -49 34 -46 21 -76 48 -76 70 0 3 9 6 20 6 45 0 130
71 130 108 0 7 5 12 10 12 18 0 31 -52 24 -97 -5 -34 -3 -43 9 -43 10 0 14
-11 13 -37 -1 -26 3 -37 12 -35 10 2 17 -17 13 -41 -1 -4 7 -11 16 -14 10 -4
23 -13 28 -20 13 -16 45 -11 61 11 12 17 14 16 33 -3 25 -25 44 -27 61 -6 7 8
18 15 26 15 21 0 36 37 24 59 -5 11 -15 21 -22 24 -10 3 -8 9 5 24 17 19 17
22 2 37 -9 9 -15 16 -13 16 2 0 32 -9 66 -20 35 -11 86 -20 112 -20 27 0 52
-5 56 -11 3 -6 16 -8 27 -5 12 3 27 0 34 -6 9 -7 20 -6 38 6 27 18 32 45 13
64 -18 18 3 15 23 -4 23 -21 53 -5 68 37 16 47 13 86 -8 106 -16 15 -18 25
-12 58 4 23 7 55 6 72 -1 27 1 30 16 22 25 -13 34 -30 20 -38 -16 -10 -32 -71
-25 -94 9 -29 47 -17 63 21 20 43 29 40 33 -10 2 -35 7 -44 25 -46 15 -2 23
-11 25 -30 2 -21 8 -26 25 -24 12 2 27 -5 35 -17 13 -18 17 -19 54 -7 21 8 43
23 49 34 7 16 16 19 36 15 48 -9 88 56 55 89 -9 9 -11 20 -5 29 11 21 -40 76
-83 91 -18 6 -41 18 -50 26 -12 9 -28 13 -48 9 -23 -5 -30 -3 -30 9 0 13 -7
15 -36 10 l-35 -7 22 30 c14 19 19 36 15 48 -6 15 -4 15 16 -3 28 -26 95 -26
113 -1 7 10 17 17 24 17 37 0 -16 98 -61 113 -10 4 -18 13 -18 20 0 8 -10 19
-22 24 -23 11 -23 11 7 24 36 16 48 33 57 79 3 19 9 51 13 71 8 40 5 42 -62
54 -25 4 -35 0 -51 -20 -11 -13 -22 -22 -25 -19 -12 12 -43 -7 -60 -36 -20
-33 -42 -41 -32 -11 8 25 -21 42 -51 31 -12 -5 -24 -6 -27 -4 -3 3 -10 -3 -16
-14 -6 -11 -8 -22 -5 -24 2 -3 -2 -11 -11 -18 -13 -11 -15 -8 -15 18 0 21 7
35 19 41 16 9 101 24 138 24 7 0 18 12 25 26 10 21 20 26 48 26 24 0 35 5 35
15 0 8 5 15 12 15 7 0 18 6 25 13 10 10 10 14 1 20 -9 6 -7 12 7 25 24 20 25
30 6 47 -8 6 -12 18 -9 27 8 20 -11 31 -52 27 l-34 -2 2 46 c2 58 22 77 64 61
24 -9 30 -7 44 10 10 12 24 21 33 21 8 0 20 9 26 20 6 11 14 18 18 16 12 -7
35 10 38 28 1 8 -4 20 -12 27 -8 6 -14 17 -14 24 0 16 -22 25 -61 25 -31 0
-30 -3 -33 85 -1 49 -2 50 -36 56 -19 4 -28 7 -19 8 18 1 52 35 44 43 -3 3 8
11 25 18 47 20 56 45 26 75 -14 14 -25 29 -24 33 2 14 -66 41 -89 36 -17 -5
-23 -2 -21 7 4 21 -49 23 -78 4 -20 -13 -24 -13 -24 -1 0 31 -20 25 -66 -21
-54 -55 -67 -46 -34 25 12 25 26 57 31 71 9 22 11 22 27 8 18 -17 86 -37 139
-42 17 -2 35 -5 40 -8 12 -7 55 12 49 22 -3 5 5 16 19 25 26 17 34 59 15 71
-8 5 -7 11 0 20 7 8 9 19 5 24 -3 6 1 23 9 39 17 34 6 52 -32 52 -18 0 -23 5
-22 23 1 12 2 28 1 35 -1 14 -67 17 -76 2 -3 -5 -15 -10 -25 -10 -10 0 -27
-11 -38 -25 -11 -14 -29 -25 -40 -25 -22 0 -57 -42 -73 -88 -8 -22 -15 -29
-29 -25 -16 4 -19 13 -17 53 3 56 18 79 50 73 12 -2 37 6 56 17 31 19 32 23
18 37 -22 22 -84 10 -93 -19 -8 -26 -34 -55 -34 -38 0 6 12 34 26 62 20 39 24
56 16 68 -6 10 -7 23 -2 30 5 8 4 23 -3 34 -6 12 -10 33 -8 48 2 21 -4 32 -29
47 -17 10 -38 28 -46 40 -17 23 -44 27 -62 9 -9 -9 -18 -9 -37 0 -14 7 -35 12
-45 12 -20 0 -44 -32 -33 -43 17 -17 -29 -15 -58 2 -33 19 -66 26 -115 22 -11
0 -38 -16 -60 -35 -22 -18 -56 -36 -79 -40 -81 -15 -140 -63 -120 -96 11 -18
-4 -60 -21 -60 -10 0 -14 6 -10 15 3 8 1 27 -4 41 -6 15 -6 23 0 19 17 -10 30
30 17 51 -11 16 -10 22 10 41 13 12 23 19 23 16 0 -4 14 7 31 25 28 29 33 44
28 92 -2 25 8 104 17 124 6 17 4 18 -17 12 -13 -4 -30 -8 -37 -10 -7 -1 -18
-8 -24 -14 -7 -7 -17 -12 -24 -12 -6 0 -23 -12 -37 -26 -35 -35 -37 -116 -4
-139 30 -21 8 -43 -30 -29 -30 10 -46 51 -30 72 7 9 7 16 0 23 -7 7 -8 22 -3
39 4 15 4 34 -1 41 -14 22 -10 49 6 49 20 0 19 17 -3 40 -17 18 -18 18 -42 0
-24 -18 -24 -20 -7 -32 18 -13 17 -15 -2 -40 -12 -14 -21 -35 -21 -47 0 -11
-7 -24 -16 -29 -11 -6 -15 -17 -11 -31 8 -32 -23 -60 -57 -54 -32 6 -59 43
-50 67 8 20 34 21 34 1 0 -8 7 -15 15 -15 19 0 40 77 26 94 -6 7 -8 16 -4 19
3 4 0 13 -7 22 -11 14 -14 13 -25 -2 -11 -15 -15 -15 -29 -4 -23 19 -20 30 9
41 21 8 24 13 16 28 -20 38 -101 71 -101 42z m-602 -383 c17 -1 15 -15 -10
-55 -21 -34 -21 -36 -5 -64 17 -29 16 -29 -6 -28 -12 1 -34 2 -49 1 l-28 -1 0
-86 c0 -47 -4 -83 -8 -80 -14 9 -86 -21 -97 -40 -19 -34 -31 -42 -58 -37 -31
6 -47 23 -22 23 8 0 18 7 21 15 4 8 12 15 20 15 7 0 17 6 21 13 4 7 21 18 36
25 15 7 25 17 22 23 -4 5 1 19 10 29 9 10 15 30 13 47 -3 29 -3 30 -80 20 -28
-4 -88 -60 -88 -82 0 -7 -6 -15 -12 -17 -8 -3 -13 -23 -13 -48 -1 -25 -6 -45
-13 -48 -8 -2 -12 14 -12 57 0 54 3 64 27 84 15 12 51 46 81 75 39 39 57 50
68 44 19 -11 122 11 140 30 21 20 6 58 -22 58 -14 0 -24 6 -24 14 0 19 19 26
50 19 14 -3 31 -6 38 -6z m1342 9 c0 -2 3 -11 6 -20 5 -12 0 -16 -19 -16 -25
0 -41 -28 -31 -54 8 -21 105 -43 143 -33 31 8 37 5 75 -32 23 -22 56 -54 74
-71 29 -28 32 -36 32 -90 0 -33 -4 -60 -10 -60 -11 0 -11 4 -13 60 -1 19 -7
39 -14 43 -7 4 -13 14 -13 20 0 7 -8 20 -19 29 -10 8 -21 22 -23 29 -2 7 -18
14 -35 15 -17 1 -39 7 -50 12 -14 8 -23 8 -31 0 -17 -17 -15 -68 4 -75 8 -3
13 -12 10 -19 -6 -16 19 -44 40 -44 8 0 14 -4 14 -8 0 -5 10 -14 23 -21 70
-37 69 -36 27 -48 -38 -10 -39 -9 -57 24 -12 22 -25 33 -40 33 -12 0 -25 5
-29 11 -3 6 -15 9 -25 6 -17 -5 -19 1 -19 74 l0 79 -50 0 -50 0 15 24 c16 24
12 49 -13 78 -26 31 -5 52 61 57 9 0 17 -1 17 -3z m-1132 -141 c11 -10 -1 -13
-57 -14 -39 -1 -71 1 -71 4 0 11 23 50 34 57 10 7 66 -21 94 -47z m957 25 c8
-16 15 -31 15 -35 0 -3 -32 -5 -71 -5 -61 0 -70 2 -60 14 10 11 88 56 98 56 1
0 9 -13 18 -30z m-1268 -292 c-3 -8 -6 -5 -6 6 -1 11 2 17 5 13 3 -3 4 -12 1
-19z m1513 -49 c0 -10 -12 -11 -34 -3 -9 3 -16 15 -16 25 0 18 1 19 25 3 14
-9 25 -20 25 -25z m-1510 6 c0 -13 -39 -38 -48 -30 -7 6 12 34 26 38 10 3 18
5 20 6 1 0 2 -6 2 -14z m1698 -166 c2 -30 -1 -40 -10 -37 -8 3 -13 22 -13 50
0 58 20 47 23 -13z m-1913 2 c0 -22 -6 -46 -13 -53 -11 -11 -13 -5 -11 32 2
25 7 48 13 52 6 4 11 8 11 8 0 0 0 -18 0 -39z m1699 33 c9 -3 16 -14 16 -23 0
-18 55 -105 88 -142 12 -12 24 -36 27 -53 4 -17 13 -41 21 -53 7 -11 16 -34
18 -49 15 -84 18 -114 8 -114 -6 0 -13 23 -17 51 -4 29 -13 53 -21 56 -8 3
-14 16 -14 29 0 12 -8 27 -17 33 -10 5 -15 13 -11 17 9 8 -9 44 -22 44 -5 0
-16 -8 -26 -17 -10 -10 -19 -17 -21 -15 -10 7 -22 -1 -28 -18 -16 -51 -25 -10
-25 120 0 77 2 140 4 140 2 0 11 -3 20 -6z m-1489 -282 c-3 -3 -12 4 -21 16
-8 12 -22 22 -30 22 -8 0 -14 5 -14 10 0 6 -11 10 -25 10 -24 0 -30 -9 -26
-38 1 -7 -5 -15 -14 -18 -8 -3 -15 -16 -15 -29 0 -13 -6 -25 -14 -28 -8 -3
-16 -16 -18 -29 -4 -21 -5 -21 -13 6 -6 23 -3 39 18 76 15 26 24 50 21 53 -4
3 14 33 39 66 51 66 77 112 77 135 0 8 8 16 18 18 15 3 17 -9 20 -131 1 -73 0
-136 -3 -139z m1770 228 c-27 -12 -35 -12 -35 0 0 6 12 10 28 9 24 0 25 -1 7
-9z m-2040 -10 c8 -13 -15 -13 -35 0 -12 8 -11 10 7 10 12 0 25 -4 28 -10z
m2041 -21 c4 -6 8 -25 9 -41 3 -34 20 -49 50 -46 12 2 32 -7 45 -20 27 -25 68
-29 76 -7 4 8 12 15 20 15 8 0 2 -11 -14 -27 -15 -15 -35 -26 -46 -24 -23 3
-36 -15 -36 -51 0 -48 -23 -30 -87 67 -59 88 -73 122 -56 138 10 11 31 8 39
-4z m-2042 -5 c29 -11 17 -48 -44 -136 -43 -62 -61 -97 -62 -122 -1 -24 -5
-33 -15 -29 -7 3 -13 13 -13 24 0 10 -8 23 -19 28 -10 6 -18 21 -19 36 0 33
-21 58 -44 52 -16 -5 -38 17 -38 37 0 12 28 5 40 -9 17 -21 53 -19 83 5 14 11
37 20 51 20 24 0 52 31 43 48 -5 8 10 52 17 52 2 0 11 -3 20 -6z m2006 -306
c0 -21 -27 -5 -37 23 l-12 32 24 -23 c14 -13 25 -27 25 -32z m-1949 20 c0 -7
2 -23 5 -36 4 -20 2 -21 -17 -12 -24 13 -49 7 -49 -13 0 -14 40 -37 63 -37 7
0 13 -17 14 -41 l3 -40 -29 23 c-16 13 -38 37 -51 55 l-22 32 32 41 c32 41 49
50 51 28z m1974 -68 c-12 -19 -22 -10 -17 16 4 22 6 24 14 10 5 -9 6 -21 3
-26z m-257 -36 c2 -14 24 -32 67 -55 36 -19 65 -37 65 -40 0 -3 -11 -20 -24
-37 l-24 -33 -20 34 c-16 29 -24 34 -46 30 -15 -3 -26 -1 -26 6 0 6 -7 11 -15
11 -12 0 -15 13 -15 56 0 47 3 55 18 52 9 -2 18 -13 20 -24z m210 -6 c1 -8 -9
-27 -23 -42 l-25 -27 2 49 c2 46 4 49 23 42 11 -4 21 -14 23 -22z m-1708 -29
c0 -58 -16 -78 -62 -79 -16 0 -28 -4 -28 -8 0 -5 -7 -17 -15 -28 -14 -18 -15
-18 -39 10 -29 33 -28 38 17 62 17 9 44 23 60 31 15 8 27 23 27 33 0 17 12 27
33 29 4 1 7 -22 7 -50z m1755 -179 c-10 -11 -15 -28 -12 -40 3 -11 1 -18 -4
-14 -15 9 -10 46 9 60 25 19 28 17 7 -6z m-2025 -41 c0 -10 -4 -20 -9 -23 -5
-4 -7 3 -4 14 3 12 -2 30 -13 43 l-19 22 23 -19 c12 -11 22 -27 22 -37z m40
-39 c0 -11 -4 -20 -9 -20 -5 0 -7 9 -4 20 3 11 7 20 9 20 2 0 4 -9 4 -20z
m1933 -37 c-8 -55 -19 -60 -15 -8 2 25 8 45 12 45 5 0 6 -17 3 -37z m-1934
-30 c-1 -37 -1 -37 -8 -8 -7 28 -5 45 5 45 2 0 3 -17 3 -37z m1702 -110 c-3
-81 -11 -80 -11 2 0 38 3 65 7 62 3 -4 5 -33 4 -64z m-1468 -15 c-1 -29 -3
-57 -4 -63 -4 -18 -14 99 -10 118 7 34 16 0 14 -55z m1824 13 c-6 -16 -15 -29
-21 -28 -5 1 -24 -21 -40 -50 -17 -29 -35 -52 -40 -53 -11 0 2 121 16 137 6 8
19 11 29 8 10 -4 27 -2 36 4 28 16 32 13 20 -18z m-141 -24 c3 -3 3 -11 -1
-16 -4 -8 -11 -6 -21 4 -31 31 -108 11 -86 -21 11 -16 70 -37 86 -31 17 7 12
-11 -15 -56 l-17 -28 -36 59 c-35 57 -39 86 -14 103 10 6 95 -5 104 -14z
m-1793 -19 c5 -18 -35 -110 -59 -137 -2 -2 -12 7 -23 20 -23 27 -28 63 -8 56
14 -5 87 30 87 42 0 5 -6 14 -14 20 -16 14 -86 5 -86 -11 0 -5 -4 -6 -10 -3
-29 18 -1 31 71 34 30 1 38 -3 42 -21z m1565 -114 c1 -14 11 -37 22 -51 17
-22 18 -27 5 -46 -7 -12 -19 -44 -26 -70 -8 -33 -21 -55 -41 -70 -22 -16 -28
-27 -23 -44 4 -18 -1 -25 -29 -38 -20 -9 -40 -23 -47 -31 -16 -19 -39 -17 -66
5 -27 22 -30 41 -7 41 23 0 84 50 84 69 0 9 14 25 31 35 16 10 28 23 26 29 -2
7 1 19 8 27 7 8 16 25 20 38 5 19 2 25 -15 29 l-21 6 24 26 c14 14 30 36 36
49 15 28 16 28 19 -4z m348 -11 c14 -18 24 -33 22 -34 -2 0 -16 -3 -31 -5 -16
-3 -46 -16 -67 -29 -37 -23 -38 -23 -55 -5 -16 17 -15 20 1 46 20 29 65 61 89
61 8 0 27 -15 41 -34z m-2034 -25 c33 -39 33 -40 10 -62 -18 -15 -21 -15 -56
9 -20 14 -40 24 -44 24 -4 -1 -17 -1 -30 0 l-22 1 26 39 c24 37 27 39 57 30
18 -5 44 -23 59 -41z m291 -41 c-8 -5 -11 -16 -8 -27 5 -16 1 -19 -33 -18 -45
0 -71 28 -47 48 8 7 20 30 25 51 l11 39 33 -42 c26 -34 30 -45 19 -51z m1844
2 c9 -9 4 -20 -18 -43 -33 -35 -49 -26 -41 24 3 23 10 30 26 30 12 0 27 -5 33
-11z m-2295 -29 c0 -14 0 -35 -1 -47 -1 -13 3 -24 9 -24 5 -1 15 -3 20 -4 6
-1 15 -3 21 -4 5 0 8 -5 4 -10 -3 -5 -1 -12 5 -16 29 -18 0 -28 -53 -18 -26 5
-28 8 -23 37 5 27 1 37 -24 61 -33 32 -26 56 16 53 18 -2 24 -9 26 -28z m691
-40 c34 -6 116 -13 182 -16 139 -7 194 -25 224 -74 l19 -32 23 31 c39 54 87
68 242 75 76 3 142 8 148 11 5 4 9 -7 9 -23 0 -17 -6 -32 -15 -36 -20 -7 -19
-36 3 -52 15 -13 14 -14 -10 -10 -15 3 -44 11 -64 18 -35 12 -37 12 -60 -17
-13 -17 -24 -38 -24 -47 0 -25 -15 -22 -17 3 -3 36 -31 70 -56 65 -161 -28
-197 -29 -276 -11 -68 15 -82 16 -107 4 -22 -11 -30 -22 -32 -47 -3 -32 -22
-46 -22 -17 0 29 -29 72 -51 78 -12 3 -35 -1 -50 -9 -60 -30 -115 -12 -121 41
-2 21 -8 30 -20 29 -10 -1 -18 -1 -18 0 0 0 -4 15 -9 33 -9 31 -8 32 15 23 13
-5 52 -14 87 -20z m1271 -42 l27 -38 -51 0 c-29 0 -50 3 -48 8 2 4 10 24 18
44 8 21 17 35 20 30 3 -4 18 -24 34 -44z m-1631 -3 c12 -33 13 -45 4 -46 -7 0
-27 -2 -44 -4 -18 -2 -33 -1 -33 2 0 6 53 93 57 93 0 0 8 -20 16 -45z m1927 5
c0 -21 -4 -25 -40 -33 -28 -7 -65 11 -42 20 6 2 10 9 7 13 -6 10 55 30 68 23
4 -2 7 -13 7 -23z m-220 -89 c0 -16 -8 -20 -45 -21 -25 0 -53 -1 -62 -2 -10 0
-34 -14 -54 -29 -68 -54 -67 -31 3 51 9 10 36 16 86 17 65 3 72 1 72 -16z
m-1707 -1 c19 0 30 -7 36 -23 5 -13 24 -36 43 -52 30 -25 31 -27 8 -20 -14 4
-40 19 -59 33 -34 26 -46 29 -118 31 -36 1 -43 4 -43 22 0 19 4 20 53 15 28
-3 64 -5 80 -6z m161 -50 c4 0 14 -7 22 -15 9 -8 24 -15 35 -15 10 0 19 -4 19
-10 0 -5 -4 -10 -9 -10 -16 0 -111 62 -111 73 0 6 8 3 18 -6 10 -10 22 -17 26
-17z m1337 -86 c17 -33 6 -40 -41 -24 -50 17 -56 24 -33 48 22 23 54 12 74
-24z m-1353 14 c18 -18 15 -26 -18 -43 -57 -30 -79 -12 -38 32 24 26 38 29 56
11z m1107 -59 c-6 -9 -67 -5 -84 5 -19 12 -12 25 17 28 29 4 75 -19 67 -33z
m-859 -6 c-10 -10 -46 -11 -52 -1 -3 4 9 8 27 8 18 0 29 -3 25 -7z m288 -11
c2 -4 -4 -19 -15 -32 l-19 -25 0 33 c0 30 21 45 34 24z m236 -17 c0 -8 -2 -15
-4 -15 -2 0 -6 7 -10 15 -3 8 -1 15 4 15 6 0 10 -7 10 -15z"/>
</g>
</svg>
